<svg id="Capa_1" enable-background="new 0 0 512 512" height="512" viewBox="0 0 512 512" width="512" xmlns="http://www.w3.org/2000/svg"><g><g><path d="m312.598 259.997c12.733.319 23.499 9.447 26.053 21.932 2.699 13.155 2.699 26.301 0 39.456-2.555 12.475-13.32 21.613-26.053 21.933 12.733.319 23.499 9.447 26.053 21.933 2.699 13.145 2.699 26.3 0 39.456-2.555 12.475-13.32 21.613-26.053 21.933 12.733.309 23.499 9.447 26.053 21.932 2.699 13.145 2.699 26.301 0 39.446-2.555 12.486-13.32 21.623-26.053 21.943-93.767 2.328-187.524 2.328-281.291 0-12.733-.319-23.498-9.457-26.064-21.943-2.689-13.145-2.689-26.301 0-39.446 2.565-12.486 13.33-21.624 26.064-21.932-12.733-.319-23.498-9.457-26.064-21.933-2.689-13.155-2.689-26.311 0-39.456 2.565-12.486 13.33-21.613 26.064-21.933-12.733-.319-23.498-9.457-26.064-21.933-2.689-13.155-2.689-26.301 0-39.456 2.565-12.486 13.33-21.613 26.064-21.932-12.733-.319-23.498-9.457-26.064-21.933-2.689-13.155-2.689-26.3 0-39.456 2.565-12.486 13.33-21.613 26.064-21.933-.325 0-.643-.027-.957-.066-12.31-.743-22.606-9.697-25.106-21.867-2.689-13.155-2.689-26.301 0-39.456 2.565-12.475 13.33-21.613 26.064-21.932 93.767-2.328 187.524-2.328 281.291 0 12.733.319 23.499 9.457 26.053 21.932 2.699 13.155 2.699 26.301 0 39.456-.464 2.287-1.205 4.461-2.184 6.48-4.378 9.055-13.464 15.195-23.869 15.453 12.733.319 23.499 9.447 26.053 21.933 2.699 13.155 2.699 26.301 0 39.456-2.555 12.476-13.321 21.614-26.054 21.933z" fill="#f6e266"/><g fill="#eab14d"><path d="m101.436 281.928c-2.7 13.151-2.7 26.301 0 39.452 2.552 12.489 13.319 21.616 26.059 21.932-12.741.326-23.507 9.453-26.059 21.942-2.7 13.151-2.7 26.301 0 39.452 2.552 12.478 13.319 21.616 26.059 21.932-12.741.315-23.507 9.453-26.059 21.932-2.7 13.151-2.7 26.301 0 39.452 1.943 9.516 8.666 19.222 17.394 23.434-29.169-.273-58.348-.777-87.527-1.502-12.731-.315-23.497-9.443-26.06-21.932-2.689-13.151-2.689-26.301 0-39.452 2.563-12.478 13.329-21.616 26.06-21.932-12.731-.315-23.497-9.453-26.06-21.932-2.689-13.151-2.689-26.301 0-39.452 2.563-12.489 13.329-21.617 26.06-21.942-12.731-.315-23.497-9.443-26.06-21.932-2.689-13.151-2.689-26.301 0-39.452 2.563-12.478 13.329-21.616 26.06-21.932-12.731-.315-23.497-9.453-26.06-21.932-2.689-13.151-2.689-26.301 0-39.452 2.563-12.489 13.329-21.616 26.06-21.942-12.731-.315-23.497-9.443-26.06-21.932-2.689-13.151-2.689-26.301 0-39.452 2.563-12.478 13.329-21.617 26.06-21.932 29.179-.725 58.358-1.229 87.527-1.502-8.728 4.212-15.451 13.917-17.394 23.434-2.7 13.15-2.7 26.301 0 39.452 2.552 12.489 13.319 21.616 26.059 21.932-12.741.326-23.507 9.453-26.059 21.942-2.7 13.15-2.7 26.301 0 39.452 2.552 12.478 13.319 21.617 26.059 21.932-12.74.315-23.506 9.454-26.059 21.932z"/><path d="m336.467 161.223c-4.378 9.055-13.464 15.195-23.869 15.453h-281.291c-4.265 0-7.726-3.461-7.726-7.726s3.461-7.726 7.726-7.726h305.16z"/><path d="m336.467 244.544c-4.378 9.055-13.464 15.195-23.869 15.453h-281.291c-4.265 0-7.726-3.461-7.726-7.726s3.461-7.726 7.726-7.726h305.16z"/><path d="m336.467 327.865c-4.378 9.055-13.464 15.195-23.869 15.453h-281.291c-4.265 0-7.726-3.461-7.726-7.726s3.461-7.726 7.726-7.726h305.16z"/><path d="m336.467 411.186c-4.378 9.055-13.464 15.195-23.869 15.453h-281.291c-4.265 0-7.726-3.461-7.726-7.726s3.461-7.726 7.726-7.726h305.16z"/></g></g><g><path d="m372.232 512h-53.634c-83.944 0-151.994-68.05-151.994-151.994s68.05-151.994 151.994-151.994h53.634" fill="#eab14d"/><circle cx="356.779" cy="360.006" fill="#f6e266" r="151.994"/><circle cx="356.779" cy="360.006" fill="#f6e266" r="111.84"/><g fill="#eab14d"><path d="m374.611 347.872c-13.326-3.88-28.088-8.581-36.532-14.035-3.331-2.151-3.294-5.67-2.977-7.576.713-4.277 4.274-9.542 12.132-11.491 18.04-4.476 29.807 3.639 30.3 3.987 5.386 3.806 12.839 2.524 16.646-2.863 3.806-5.387 2.524-12.84-2.863-16.646-2.221-1.569-10.624-6.964-23.474-8.968v-4.379c0-6.596-5.347-11.943-11.943-11.943s-11.943 5.347-11.943 11.943v5.118c-.817.173-1.641.361-2.475.567-15.725 3.901-27.477 15.97-29.94 30.747-2.117 12.695 3.085 24.791 13.577 31.568 8.889 5.742 21.294 10.64 42.815 16.905 10.358 3.015 15.704 8.994 14.668 16.403-1.633 11.68-15.008 18.051-26.764 18.116-14.773.076-20.009-.708-31.265-6.773-5.808-3.128-13.051-.958-16.179 4.849-3.129 5.807-.957 13.05 4.849 16.179 12.026 6.479 20.443 8.682 30.715 9.36v5.171c0 6.596 5.347 11.943 11.943 11.943s11.943-5.347 11.943-11.943v-6.095c22.449-4.5 36.124-21.112 38.415-37.5 2.071-14.818-4.975-34.878-31.648-42.644z"/><path d="m356.779 479.572c-65.93 0-119.566-53.637-119.566-119.566s53.636-119.566 119.566-119.566 119.566 53.637 119.566 119.566-53.637 119.566-119.566 119.566zm0-223.68c-57.408 0-104.114 46.705-104.114 104.114s46.705 104.114 104.114 104.114 104.114-46.705 104.114-104.114-46.706-104.114-104.114-104.114z"/></g></g><g fill="#f6e781"><path d="m384.653 85.719 1.507 1.507c5.314 5.314 13.835 5.606 19.499.668l17.425-15.188c6.241-5.44 6.57-15.028.715-20.883l-3.744-3.744c-5.854-5.854-15.443-5.526-20.883.715l-15.187 17.426c-4.938 5.665-4.646 14.186.668 19.499z"/><path d="m420.537 146.771.551 2.058c1.945 7.259 9.178 11.772 16.553 10.328l22.684-4.441c8.125-1.591 13.204-9.73 11.061-17.727l-1.37-5.114c-2.143-7.997-10.611-12.507-18.443-9.822l-21.866 7.496c-7.107 2.438-11.115 9.963-9.17 17.222z"/><path d="m323.05 50.79 2.058.551c7.259 1.945 14.784-2.063 17.221-9.171l7.497-21.866c2.685-7.832-1.825-16.3-9.822-18.443l-5.114-1.37c-7.997-2.143-16.137 2.936-17.727 11.061l-4.441 22.684c-1.444 7.376 3.069 14.609 10.328 16.554z"/></g></g></svg>