<svg height="512" viewBox="0 0 64 64" width="512" xmlns="http://www.w3.org/2000/svg"><g id="files-paper-document"><path d="m56 58h-39-3v-3h6 26 7v-32-4-7l-6-6h9v3z" fill="#78b9eb"/><path d="m53 12v43h-42v-6h25v-32h-3v-3h-4v-2h-6v2h-12v-11h33v9z" fill="#78b9eb"/><path d="m59 8h-2v-2a1 1 0 0 0 -1-1h-8.59l-2.7-2.71a1.033 1.033 0 0 0 -.71-.29h-33a1 1 0 0 0 -1 1v10h-5a1 1 0 0 0 -1 1v32a1 1 0 0 0 1 1h2v2a1 1 0 0 0 1 1h2v5a1 1 0 0 0 1 1h2v2a1 1 0 0 0 1 1h2v2a1 1 0 0 0 1 1h42a1 1 0 0 0 1-1v-52a1 1 0 0 0 -1-1zm-14-2.59 5.59 5.59h-5.59zm-39 39.59v-30h16v5a.984.984 0 0 0 .53.88.963.963 0 0 0 1.02-.05l2.45-1.63 2.45 1.63a1 1 0 0 0 1.55-.83v-5h2v30zm18-26.87v-5.13h4v5.13l-1.45-.96a.975.975 0 0 0 -1.1 0zm-15 29.87v-1h24a1 1 0 0 0 1-1v-28h1v30zm3 6v-4h24a1 1 0 0 0 1-1v-32a1 1 0 0 0 -1-1h-2v-2a1 1 0 0 0 -1-1h-3v-1a1 1 0 0 0 -1-1h-6a1 1 0 0 0 -1 1v1h-10v-9h31v8a1 1 0 0 0 1 1h8v41zm3 3v-1h38a1 1 0 0 0 1-1v-43a1.033 1.033 0 0 0 -.29-.71l-4.3-4.29h5.59v50zm43 3h-40v-1h38a1 1 0 0 0 1-1v-48h1z" fill="#006df0"/></g></svg>