<svg id="Layer_1" enable-background="new 0 0 256 256" height="512" viewBox="0 0 256 256" width="512" xmlns="http://www.w3.org/2000/svg"><circle cx="138.376" cy="188.692" fill="#4671c6" r="19.091"/><path d="m138.376 199.452c-5.934 0-10.761-4.827-10.761-10.76s4.827-10.76 10.761-10.76c5.933 0 10.76 4.827 10.76 10.76s-4.827 10.76-10.76 10.76z" fill="#f9cfcf"/><path d="m138.376 209.783c-11.63 0-21.091-9.461-21.091-21.091s9.461-21.091 21.091-21.091 21.091 9.461 21.091 21.091-9.461 21.091-21.091 21.091zm0-38.181c-9.424 0-17.091 7.667-17.091 17.091s7.667 17.091 17.091 17.091 17.091-7.667 17.091-17.091-7.667-17.091-17.091-17.091z" fill="#3762cc"/><circle cx="57.914" cy="188.692" fill="#4671c6" r="19.091"/><path d="m57.914 199.452c-5.934 0-10.761-4.827-10.761-10.76s4.827-10.76 10.761-10.76c5.933 0 10.76 4.827 10.76 10.76s-4.827 10.76-10.76 10.76z" fill="#f9cfcf"/><path d="m57.914 209.783c-11.629 0-21.091-9.461-21.091-21.091s9.461-21.091 21.091-21.091 21.091 9.461 21.091 21.091-9.462 21.091-21.091 21.091zm0-38.181c-9.424 0-17.091 7.667-17.091 17.091s7.667 17.091 17.091 17.091 17.091-7.667 17.091-17.091-7.667-17.091-17.091-17.091z" fill="#3762cc"/><path d="m63.528 169.601v14.3c0 2.584-2.094 4.678-4.678 4.678h-1.344c-1.995 0-3.771-1.266-4.422-3.152l-5.461-15.826z" fill="#a4c9ff"/><path d="m143.989 169.601v14.3c0 2.584-2.094 4.678-4.678 4.678h-1.344c-1.995 0-3.771-1.266-4.422-3.152l-5.461-15.826z" fill="#a4c9ff"/><path d="m58.85 190.579h-1.344c-2.847 0-5.384-1.809-6.313-4.5l-5.461-15.825c-.211-.611-.113-1.287.262-1.813s.982-.839 1.628-.839h15.905c1.104 0 2 .896 2 2v14.3c.001 3.681-2.995 6.677-6.677 6.677zm-8.421-18.977 4.546 13.173c.373 1.079 1.39 1.805 2.531 1.805h1.344c1.477 0 2.678-1.201 2.678-2.678v-12.3z" fill="#3762cc"/><path d="m139.312 190.579h-1.344c-2.848 0-5.385-1.809-6.313-4.501l-5.462-15.824c-.211-.611-.113-1.286.262-1.813.375-.526.982-.839 1.628-.839h15.905c1.104 0 2 .896 2 2v14.3c.001 3.681-2.995 6.677-6.676 6.677zm-8.422-18.977 4.547 13.173c.372 1.08 1.39 1.805 2.531 1.805h1.344c1.477 0 2.678-1.201 2.678-2.678v-12.3z" fill="#3762cc"/><path d="m218.495 39.243h-34.209c-2.266 0-4.102-1.837-4.102-4.102v-10.256c0-2.266 1.837-4.102 4.102-4.102h34.209c2.266 0 4.102 1.837 4.102 4.102v10.256c0 2.265-1.837 4.102-4.102 4.102z" fill="#f9a7a7"/><path d="m218.495 41.243h-34.21c-3.364 0-6.102-2.737-6.102-6.103v-10.255c0-3.364 2.737-6.102 6.102-6.102h34.21c3.364 0 6.102 2.737 6.102 6.102v10.256c0 3.365-2.738 6.102-6.102 6.102zm-34.21-18.46c-1.159 0-2.102.942-2.102 2.102v10.256c0 1.159.942 2.103 2.102 2.103h34.21c1.159 0 2.102-.943 2.102-2.103v-10.256c0-1.159-.942-2.102-2.102-2.102z" fill="#3762cc"/><path d="m168.498 39.071c.31-2.241 2.107-3.93 4.18-3.93h7.505v-10.256h-7.505c-7.168 0-13.332 5.495-14.34 12.781l-1.196 8.654h4.312c1.479 0 2.886.639 3.86 1.752.974 1.114 1.419 2.594 1.222 4.06z" fill="#a4c9ff"/><path d="m166.538 54.133c-.095 0-.189-.007-.285-.02-1.087-.155-1.847-1.158-1.7-2.247.121-.895-.15-1.797-.745-2.477-.594-.679-1.451-1.068-2.354-1.068h-4.312c-.578 0-1.128-.25-1.508-.687-.38-.436-.553-1.015-.474-1.587l1.195-8.654c1.145-8.271 8.16-14.508 16.321-14.508h7.506c1.104 0 2 .896 2 2v10.255c0 1.104-.896 2-2 2h-7.506c-1.063 0-2.028.968-2.199 2.204-.001.008-.003.016-.004.023l-1.962 13.062c-.147.992-.999 1.704-1.973 1.704zm-7.1-9.812h2.017c1.458 0 2.865.446 4.043 1.258l1.021-6.794c.45-3.219 3.097-5.645 6.16-5.645h5.506v-6.255h-5.506c-6.174 0-11.487 4.753-12.358 11.056zm9.059-5.25h.01z" fill="#3762cc"/><path d="m165.314 48.073c-.973-1.114-2.381-1.752-3.86-1.752h-134.812c-2.559 0-4.993 1.104-6.677 3.031-1.685 1.926-2.456 4.485-2.114 7.023l10.407 77.288c.838 6.231 6.212 10.93 12.5 10.93h18.614c.351.076.711.126 1.082.126.15 0 .301-.007.453-.02.193-.017.372-.069.557-.106h61.426c.185.037.365.089.557.106.152.013.302.02.453.02.371 0 .731-.05 1.082-.126h18.077c6.288 0 11.661-4.699 12.499-10.93l10.978-81.53c.197-1.466-.248-2.946-1.222-4.06zm-137.089 8.504h19.823l2.953 33.752h-18.231zm12.532 77.76c-1.175 0-2.179-.878-2.337-2.042l-4.27-31.71h17.748l2.953 33.752zm46.292 0h-21.902l-2.953-33.752h24.854v33.752zm0-44.008h-25.752l-2.953-33.752h28.705zm32.156 44.008h-21.901v-33.752h24.854zm3.85-44.008h-25.751v-33.752h28.704zm22.339 41.966c-.157 1.164-1.161 2.042-2.336 2.042h-13.558l2.953-33.752h17.21zm5.65-41.966h-17.693l2.953-33.752h19.285z" fill="#a4c9ff"/><path d="m149.447 144.593c3.794 0 6.879 3.309 6.879 7.376s-3.086 7.376-6.879 7.376h-115.235c-2.832 0-5.128 2.296-5.128 5.128s2.295 5.127 5.128 5.127h115.234c9.448 0 17.135-7.91 17.135-17.632 0-7.647-4.764-14.154-11.391-16.591-1.505 5.355-6.437 9.215-12.131 9.215h6.388z" fill="#a4c9ff"/><g fill="#3762cc"><path d="m123.9 146.719c-.206 0-.411-.009-.619-.026-.212-.019-.412-.056-.609-.1h-60.991c-.197.044-.396.081-.604.099-.636.056-1.236.028-1.906-.099h-18.414c-7.285 0-13.511-5.444-14.482-12.663l-10.407-77.288c-.418-3.109.526-6.246 2.591-8.606 2.064-2.36 5.047-3.714 8.183-3.714h134.813c2.056 0 4.012.888 5.365 2.436 1.354 1.547 1.973 3.604 1.698 5.643l-10.978 81.53c-.971 7.219-7.196 12.663-14.481 12.663h-17.877c-.448.084-.869.125-1.282.125zm-62.437-4.126h61.426c.132 0 .264.013.393.039l.218.048c.045.01.09.021.137.029.219.015.548.01.92-.07.14-.03.282-.046.424-.046h18.077c5.291 0 9.812-3.953 10.517-9.196l10.978-81.53c.121-.895-.15-1.797-.745-2.477-.594-.679-1.451-1.068-2.354-1.068h-134.812c-1.982 0-3.867.855-5.172 2.347s-1.902 3.475-1.638 5.44l10.407 77.288c.706 5.243 5.227 9.196 10.518 9.196h18.614c.143 0 .285.016.424.046.373.081.653.091.944.067.023-.005.068-.017.113-.026l.22-.048c.128-.027.26-.039.391-.039zm81.596-6.255h-13.558c-.561 0-1.096-.235-1.475-.648-.379-.414-.566-.967-.518-1.525l2.953-33.753c.09-1.033.955-1.826 1.992-1.826h17.21c.577 0 1.126.249 1.506.684s.554 1.012.477 1.583l-4.27 31.711v.001c-.29 2.15-2.147 3.773-4.317 3.773zm-11.375-4h11.375c.172 0 .33-.139.354-.309l3.965-29.444h-13.09zm13.711-.042h.01zm-26.19 4.042h-21.901c-1.104 0-2-.896-2-2v-33.753c0-1.104.896-2 2-2h24.854c.561 0 1.096.235 1.475.648.379.414.566.967.518 1.525l-2.953 33.753c-.091 1.034-.956 1.827-1.993 1.827zm-19.901-4h18.068l2.603-29.753h-20.671zm-12.256 4h-21.901c-1.037 0-1.902-.793-1.992-1.826l-2.953-33.753c-.049-.559.139-1.111.518-1.525.379-.413.914-.648 1.475-.648h24.854c1.104 0 2 .896 2 2v33.753c-.001 1.103-.896 1.999-2.001 1.999zm-20.068-4h18.068v-29.753h-20.671zm-12.128 4h-14.095c-2.171 0-4.028-1.623-4.318-3.775l-4.27-31.711c-.077-.571.097-1.148.477-1.583.379-.435.928-.684 1.505-.684h17.748c1.037 0 1.902.793 1.992 1.826l2.953 33.753c.049.559-.139 1.111-.518 1.525s-.914.649-1.474.649zm-18.414-33.753 3.964 29.443c.023.17.182.31.354.31h11.912l-2.603-29.753zm114.607-10.256h-17.694c-.561 0-1.096-.235-1.475-.648-.379-.414-.566-.967-.518-1.526l2.953-33.752c.09-1.032.955-1.825 1.992-1.825h19.285c.577 0 1.126.249 1.506.684s.554 1.012.477 1.583l-4.544 33.752c-.133.992-.981 1.732-1.982 1.732zm-15.512-4h13.763l4.006-29.752h-15.165zm-12.478 4h-25.751c-1.104 0-2-.896-2-2v-33.752c0-1.104.896-2 2-2h28.704c.561 0 1.096.235 1.475.648.379.414.566.967.518 1.526l-2.953 33.752c-.091 1.033-.956 1.826-1.993 1.826zm-23.751-4h21.918l2.603-29.752h-24.521zm-12.256 4h-25.751c-1.037 0-1.902-.793-1.992-1.825l-2.953-33.752c-.049-.56.139-1.112.518-1.526.379-.413.914-.648 1.475-.648h28.705c1.104 0 2 .896 2 2v33.752c-.002 1.104-.897 1.999-2.002 1.999zm-23.919-4h21.919v-29.752h-24.522zm-12.128 4h-18.231c-1.001 0-1.849-.74-1.982-1.733l-4.545-33.752c-.077-.571.097-1.148.476-1.583.38-.435.929-.684 1.506-.684h19.823c1.037 0 1.902.793 1.992 1.825l2.953 33.752c.049.56-.139 1.112-.518 1.526-.378.414-.913.649-1.474.649zm-16.482-4h14.3l-2.603-29.752h-15.703z"/><path d="m54.852 136.338h-14.095c-1.104 0-2-.896-2-2s.896-2 2-2h14.095c1.104 0 2 .896 2 2s-.896 2-2 2z"/><path d="m59.372 146.593h-18.615c-1.104 0-2.001-.896-2.001-2s.894-2 1.999-2h18.618c1.104 0 2 .896 2 2 0 1.1-.887 1.991-1.984 2-.006 0-.012 0-.017 0z"/><path d="m87.048 136.338h-21.901c-1.104 0-2-.896-2-2s.896-2 2-2h21.901c1.104 0 2 .896 2 2s-.895 2-2 2z"/><path d="m122.89 146.593h-61.428c-1.104 0-2-.896-2-2s.896-2 2-2h.001 61.427c1.104 0 2 .896 2 2 0 1.098-.885 1.989-1.981 2-.007 0-.013 0-.019 0z"/><path d="m149.446 171.602h-115.234c-3.93 0-7.127-3.197-7.127-7.128s3.197-7.128 7.127-7.128h115.234c2.69 0 4.88-2.412 4.88-5.376 0-2.965-2.189-5.377-4.88-5.377h-6.388c-1.104 0-2-.896-2-2s.896-2 2-2c4.726 0 8.923-3.189 10.206-7.756.151-.537.52-.986 1.017-1.24.496-.254 1.076-.288 1.6-.096 7.597 2.794 12.701 10.216 12.701 18.469 0 10.825-8.584 19.632-19.136 19.632zm-115.234-10.256c-1.725 0-3.127 1.403-3.127 3.128s1.403 3.128 3.127 3.128h115.234c8.346 0 15.136-7.013 15.136-15.632 0-5.895-3.249-11.253-8.258-13.901-.912 1.98-2.247 3.706-3.874 5.076 3.423 1.304 5.876 4.768 5.876 8.825 0 5.17-3.983 9.376-8.88 9.376z"/><path d="m119.205 136.338h-21.901c-1.104 0-2-.896-2-2s.896-2 2-2h21.901c1.104 0 2 .896 2 2s-.895 2-2 2z"/><path d="m143.06 136.338h-13.559c-1.104 0-2-.896-2-2s.896-2 2-2h13.559c1.104 0 2 .896 2 2s-.896 2-2 2z"/></g><circle cx="170.274" cy="167.82" fill="#6bdddd" r="42.93"/><path d="m182.422 161.555c2.721-3.15 4.253-7.455 4.253-11.949v-9.098h-16.401-16.401v9.098c0 4.494 1.533 8.799 4.253 11.949 1.255 1.453 2.723 2.614 4.329 3.431 1.071.545 1.755 1.632 1.755 2.834 0 1.202-.684 2.289-1.755 2.834-1.605.817-3.074 1.978-4.329 3.431-2.721 3.15-4.253 7.455-4.253 11.948v9.098h16.401 16.401v-9.098c0-4.493-1.533-8.799-4.253-11.948-1.255-1.453-2.723-2.614-4.329-3.431-1.071-.545-1.755-1.632-1.755-2.834 0-1.202.684-2.289 1.755-2.834 1.605-.817 3.074-1.978 4.329-3.431z" fill="#e0ebfc"/><path d="m186.827 201.782h-33.201c-1.836 0-3.325-1.489-3.325-3.325 0-1.836 1.489-3.325 3.325-3.325h33.201c1.836 0 3.325 1.489 3.325 3.325 0 1.836-1.489 3.325-3.325 3.325z" fill="#4671c6"/><path d="m168.933 162.958-3.854-1.305c-1.633-.553-3.09-1.531-4.22-2.833-2.205-2.553-3.47-6.203-3.47-10.012v-3.203h25.678v3.203c0 3.809-1.265 7.458-3.471 10.012-1.129 1.303-2.585 2.281-4.218 2.833l-3.855 1.305c-.84.284-1.75.284-2.59 0z" fill="#f9cfcf"/><path d="m169.399 179.202c.545-.127 1.112-.127 1.657 0l4.141.964c1.676.39 3.208 1.049 4.37 1.967.01.008.019.015.029.023 2.205 1.755 3.47 4.264 3.47 6.883v2.202h-25.677v-2.202c0-2.618 1.265-5.127 3.471-6.883.009-.007.018-.014.027-.022 1.162-.919 2.695-1.578 4.373-1.969z" fill="#f9cfcf"/><path d="m186.876 140.509h-33.201c-1.836 0-3.325-1.489-3.325-3.325 0-1.836 1.489-3.325 3.325-3.325h33.201c1.836 0 3.325 1.489 3.325 3.325 0 1.836-1.489 3.325-3.325 3.325z" fill="#4671c6"/><path d="m170.274 168.585c-.46 0-.834-.374-.834-.834v-1.946c0-.46.374-.834.834-.834s.834.374.834.834v1.946c0 .46-.373.834-.834.834z" fill="#f9cfcf"/><path d="m170.274 172.969c-.46 0-.834-.374-.834-.834v-1.992c0-.46.374-.834.834-.834s.834.374.834.834v1.992c0 .46-.373.834-.834.834z" fill="#f9cfcf"/><path d="m170.274 177.48c-.46 0-.834-.374-.834-.834v-1.946c0-.46.374-.834.834-.834s.834.374.834.834v1.946c0 .461-.373.834-.834.834z" fill="#f9cfcf"/><path d="m169.816 235.217c-28.952 0-54.479-18.006-63.914-44.939l-.627.168c-.316.085-.639.127-.963.128-1.269 0-2.43-.645-3.106-1.727-.67-1.072-.737-2.393-.18-3.533l5.4-11.058c.621-1.273 1.89-2.064 3.309-2.064.734 0 1.444.217 2.053.627l10.204 6.876c1.202.809 1.801 2.199 1.563 3.628-.236 1.415-1.286 2.569-2.676 2.942l-.969.26c7.702 20.602 27.596 34.341 49.958 34.341 5.22 0 10.433-.764 15.495-2.271 27.597-8.216 43.777-36.27 36.832-63.867-5.919-23.523-27.182-39.952-51.707-39.952-4.713 0-9.432.624-14.027 1.856-12.318 3.3-23.094 10.864-30.345 21.297-1.371 1.972-3.616 3.15-6.009 3.15-1.246 0-2.477-.326-3.563-.944-1.738-.991-2.988-2.675-3.429-4.619-.444-1.956-.039-4.03 1.113-5.689 9.202-13.254 22.882-22.86 38.52-27.05 5.826-1.561 11.812-2.353 17.791-2.353 31.91 0 59.071 21.531 66.048 52.36 7.806 34.488-12.946 69.449-47.245 79.592-6.376 1.885-12.946 2.841-19.526 2.841z" fill="#ffea92"/><path d="m169.816 237.217c-29.077 0-55.062-17.872-65.209-44.651-.1.005-.197.025-.3.008-1.96 0-3.754-.997-4.797-2.667-1.038-1.659-1.143-3.704-.281-5.47l5.4-11.059c.959-1.965 2.916-3.187 5.106-3.187 1.135 0 2.232.336 3.172.971l10.202 6.875c1.86 1.251 2.787 3.402 2.418 5.615-.295 1.773-1.418 3.283-2.978 4.096 7.894 18.695 26.648 31.117 47.319 31.117 5.027 0 10.049-.736 14.925-2.188 26.568-7.91 42.146-34.908 35.463-61.462-5.694-22.633-26.159-38.44-49.768-38.44-4.539 0-9.084.602-13.509 1.787-11.86 3.179-22.238 10.461-29.221 20.507-1.745 2.51-4.604 4.009-7.65 4.009-1.593 0-3.167-.417-4.553-1.206-2.225-1.269-3.825-3.425-4.39-5.915-.568-2.503-.05-5.153 1.421-7.271 9.471-13.641 23.551-23.528 39.645-27.841 5.993-1.606 12.153-2.421 18.309-2.421 32.854 0 60.815 22.172 67.998 53.918 8.039 35.514-13.321 71.511-48.628 81.951-6.561 1.94-13.321 2.924-20.094 2.924zm-63.913-48.939c.831 0 1.6.521 1.887 1.339 9.136 26.078 34.062 43.6 62.027 43.6 6.388 0 12.767-.929 18.959-2.76 33.292-9.845 53.437-43.769 45.862-77.232-6.769-29.911-33.126-50.801-64.098-50.801-5.807 0-11.618.769-17.273 2.284-15.182 4.068-28.462 13.395-37.395 26.259-.832 1.198-1.125 2.694-.806 4.105.318 1.398 1.218 2.61 2.47 3.324.783.445 1.672.682 2.572.682 1.736 0 3.369-.856 4.366-2.292 7.521-10.82 18.697-18.665 31.47-22.087 4.763-1.276 9.656-1.924 14.544-1.924 25.444 0 47.505 17.051 53.646 41.464 7.207 28.639-9.572 57.749-38.201 66.272-5.246 1.562-10.651 2.354-16.065 2.354-23.032 0-43.862-14.323-51.832-35.641-.197-.528-.163-1.114.095-1.616.258-.501.716-.87 1.26-1.016l.969-.26c.635-.17 1.113-.695 1.221-1.338.109-.656-.155-1.27-.707-1.641l-10.205-6.877c-.278-.188-.601-.286-.936-.286-.659 0-1.224.352-1.511.941l-5.4 11.059c-.256.524-.228 1.105.079 1.595.313.501.825.787 1.407.787.105.005.302-.021.452-.06l.624-.167c.174-.045.347-.067.519-.067z" fill="#3762cc"/></svg>