<?xml version="1.0" encoding="iso-8859-1"?>
<!-- Generator: Adobe Illustrator 19.0.0, SVG Export Plug-In . SVG Version: 6.00 Build 0)  -->
<svg version="1.1" id="Capa_1" xmlns="http://www.w3.org/2000/svg" xmlns:xlink="http://www.w3.org/1999/xlink" x="0px" y="0px"
	 viewBox="0 0 512 512" style="enable-background:new 0 0 512 512;" xml:space="preserve">
<path style="fill:#FFB3C1;" d="M257.463,0.01v309.034c78.984-0.783,142.762-65.046,142.762-144.215v-20.604
	C400.225,65.056,336.447,0.793,257.463,0.01z"/>
<path style="fill:#FDDBDF;" d="M257.463,0.01C319.377,1.01,369.32,65.19,369.32,144.225v20.604
	c0,79.035-49.943,143.216-111.857,144.215c-0.484,0.01-0.979,0.01-1.463,0.01c-79.654,0-144.225-64.572-144.225-144.225v-20.604
	C111.775,64.572,176.346,0,256,0C256.484,0,256.979,0,257.463,0.01z"/>
<path d="M204.491,162.254c-4.268,0-7.726-3.458-7.726-7.726v-30.905c0-4.268,3.458-7.726,7.726-7.726
	c4.268,0,7.726,3.458,7.726,7.726v30.905C212.217,158.795,208.759,162.254,204.491,162.254z"/>
<path d="M307.509,162.254c-4.268,0-7.726-3.458-7.726-7.726v-30.905c0-4.268,3.458-7.726,7.726-7.726
	c4.268,0,7.726,3.458,7.726,7.726v30.905C315.235,158.795,311.777,162.254,307.509,162.254z"/>
<path style="fill:#FF91A5;" d="M256,224.064c-16.34,0-30.978-10.35-36.424-25.755c-1.423-4.023,0.686-8.437,4.709-9.86
	c4.022-1.423,8.437,0.685,9.86,4.709c3.268,9.243,12.05,15.453,21.855,15.453c9.805,0,18.588-6.21,21.855-15.453
	c1.423-4.023,5.837-6.13,9.86-4.709c4.023,1.423,6.132,5.837,4.709,9.86C286.978,213.714,272.34,224.064,256,224.064z"/>
<polygon style="fill:#8CFFF3;" points="160.193,339.96 256,487.131 351.807,339.96 "/>
<path style="fill:#008F80;" d="M160.193,339.96l30.905,86.02L160.193,512H27.506C40.579,435.159,91.315,371.205,160.193,339.96z"/>
<path style="fill:#00786B;" d="M351.807,339.96L453.589,512h30.905C471.421,435.159,420.685,371.205,351.807,339.96z"/>
<path style="fill:#008F80;" d="M351.807,339.96c52.838,31.245,91.758,95.199,101.782,172.04H351.807l-30.905-86.02L351.807,339.96z"
	/>
<polygon style="fill:#00D4BE;" points="351.807,339.96 351.807,512 320.901,512 289.996,441.407 320.901,370.814 "/>
<polygon style="fill:#06F5DD;" points="320.901,370.814 320.901,512 160.193,512 160.193,339.96 256,435.622 "/>
<g>
</g>
<g>
</g>
<g>
</g>
<g>
</g>
<g>
</g>
<g>
</g>
<g>
</g>
<g>
</g>
<g>
</g>
<g>
</g>
<g>
</g>
<g>
</g>
<g>
</g>
<g>
</g>
<g>
</g>
</svg>
